<?xml version="1.0" encoding="utf-8"?>
<!-- Generator: Adobe Illustrator 16.0.4, SVG Export Plug-In . SVG Version: 6.00 Build 0)  -->
<!DOCTYPE svg PUBLIC "-//W3C//DTD SVG 1.1//EN" "http://www.w3.org/Graphics/SVG/1.1/DTD/svg11.dtd">
<svg version="1.1" id="Ebene_1" xmlns="http://www.w3.org/2000/svg" xmlns:xlink="http://www.w3.org/1999/xlink" x="0px" y="0px"
	 width="324.25px" height="93.416px" viewBox="0 0 324.25 93.416" enable-background="new 0 0 324.25 93.416" xml:space="preserve">
<g>
	<g>
		<g>
			<path fill="#C0D678" d="M79.104,62.58c0-4.94-3.65-8.595-8.449-8.595c-5.152,0-8.446,3.581-8.446,8.595
				c0,4.867,3.294,8.59,8.446,8.59C75.454,71.17,79.104,67.447,79.104,62.58 M88.555,62.58c0,9.735-6.729,17.11-15.821,17.11
				c-4.37,0-7.733-1.792-10.097-4.296v17.612h-9.379V46.11h7.875l0.359,4.012c2.576-2.722,6.157-4.655,10.955-4.655
				C81.539,45.467,88.555,52.842,88.555,62.58"/>
		</g>
		<rect x="92.751" y="46.264" fill="#C0D678" width="8.211" height="32.782"/>
		<path fill="#C0D678" d="M130.402,45.753l-0.787,9.31c-0.931-0.358-1.792-0.646-3.294-0.646c-5.227,0-8.449,3.435-8.449,8.09
			v16.539h-9.379V46.112h7.805l0.356,6.444c1.148-4.009,5.227-7.09,10.882-7.09C128.543,45.466,129.545,45.54,130.402,45.753"/>
		<path fill="#C0D678" d="M159.318,62.58c0-5.014-3.292-8.595-8.447-8.595c-4.798,0-8.451,3.655-8.451,8.595
			c0,4.868,3.652,8.59,8.451,8.59C156.026,71.17,159.39,67.52,159.318,62.58 M168.339,46.111v32.936h-8.303l-0.359-4.512
			c-2.435,3.005-6.014,5.155-10.881,5.155c-9.092,0-15.826-7.375-15.826-17.11c0-9.738,6.949-17.115,16.039-17.115
			c4.37,0,7.803,1.577,10.241,3.796l0.428-3.15H168.339z"/>
		<polygon fill="#C0D678" points="204.033,53.4 193.045,53.4 193.045,79.047 184.769,79.047 184.769,53.4 173.904,53.4 
			173.904,46.265 204.033,46.265 		"/>
		<path fill="#C0D678" d="M214.594,59.142h15.323c-0.433-3.722-3.367-6.229-7.09-6.229
			C218.744,52.913,215.668,55.063,214.594,59.142 M238.721,65.157h-24.196c1.072,3.794,4.723,6.657,9.879,6.657
			c4.794,0,7.301-2.22,8.731-3.363l3.868,6.729c-2.005,1.789-6.083,4.509-13.602,4.509c-10.453,0-18.115-7.446-18.115-17.11
			c0-9.595,7.088-17.113,17.185-17.113c9.949,0,16.396,7.305,16.396,17.184C238.866,63.868,238.721,65.157,238.721,65.157"/>
		<path fill="#C0D678" d="M242.076,75.537l3.865-6.944c2.509,1.863,6.659,3.581,11.171,3.581c2.722,0,4.152-0.861,4.152-2.579
			s-1.576-2.507-5.941-3.509c-5.586-1.361-11.814-3.722-11.814-10.238c0-6.298,5.439-10.381,13.747-10.381
			c5.654,0,10.666,1.72,13.601,3.724l-3.722,6.944c-2.936-1.861-6.444-3.15-10.095-3.15c-2.363,0-3.867,0.789-3.867,2.436
			c0,1.646,1.717,2.22,6.661,3.365c5.368,1.287,11.022,3.292,11.022,10.235c0,6.304-5.08,10.669-14.677,10.669
			C250.455,79.689,245.513,77.897,242.076,75.537"/>
	</g>
	<g>
		<path fill="#181716" d="M55.788,15.537v18.258h-9.379V16.898c0-4.939-2.578-8.233-6.587-8.233c-4.294,0-7.088,3.363-7.088,8.09
			v17.041h-9.377V16.898c0-4.939-2.65-8.233-6.516-8.233c-4.512,0-7.162,3.579-7.162,7.946v17.185H0.299V0.859H7.03L7.389,6.66
			c1.717-3.581,5.942-6.444,11.025-6.444c5.227,0,9.308,2.292,11.743,5.801c2.004-3.225,5.798-5.801,10.738-5.801
			C49.559,0.216,55.788,6.373,55.788,15.537"/>
		<path fill="#181716" d="M87.13,17.329c0-4.727-3.581-8.595-8.377-8.595c-4.727,0-8.377,3.868-8.377,8.595
			c0,4.793,3.65,8.59,8.377,8.59C83.549,25.919,87.13,22.123,87.13,17.329 M60.925,17.329c0-9.738,7.946-17.113,17.828-17.113
			c9.881,0,17.828,7.375,17.828,17.113c0,9.733-7.946,17.11-17.828,17.11C68.871,34.439,60.925,27.062,60.925,17.329"/>
		<path fill="#181716" d="M173.74,15.608v18.187h-9.38V16.897c0-5.012-2.938-8.233-7.231-8.233c-4.725,0-7.66,3.581-7.66,7.946
			v17.184h-9.381V0.858h6.731l0.359,5.585c1.933-3.435,6.088-6.229,12.099-6.229C168.085,0.215,173.74,6.231,173.74,15.608"/>
		<path fill="#181716" d="M179.885,30.286l3.866-6.944c2.509,1.863,6.659,3.581,11.171,3.581c2.722,0,4.152-0.861,4.152-2.579
			c0-1.718-1.576-2.507-5.942-3.509c-5.583-1.361-11.814-3.722-11.814-10.238c0-6.301,5.44-10.382,13.747-10.382
			c5.655,0,10.667,1.72,13.602,3.725l-3.722,6.944c-2.936-1.863-6.444-3.15-10.095-3.15c-2.363,0-3.868,0.789-3.868,2.435
			c0,1.646,1.72,2.22,6.662,3.363c5.368,1.289,11.022,3.293,11.022,10.238c0,6.303-5.081,10.668-14.678,10.668
			C188.262,34.438,183.322,32.651,179.885,30.286"/>
		<polygon fill="#181716" points="239.062,1.013 239.062,13.644 224.157,13.644 224.157,1.013 215.944,1.013 215.944,33.794 
			224.157,33.794 224.157,20.908 239.062,20.908 239.062,33.794 247.338,33.794 247.338,1.013 		"/>
		<g>
			<path fill="#181716" d="M280.533,17.329c0-4.727-3.581-8.595-8.38-8.595c-4.724,0-8.377,3.868-8.377,8.595
				c0,4.793,3.653,8.59,8.377,8.59C276.952,25.919,280.533,22.123,280.533,17.329 M254.328,17.329
				c0-9.738,7.946-17.113,17.825-17.113c9.88,0,17.83,7.375,17.83,17.113c0,9.733-7.95,17.11-17.83,17.11
				C262.274,34.439,254.328,27.062,254.328,17.329"/>
		</g>
		<polygon fill="#181716" points="293.683,1.013 293.683,8.148 304.549,8.148 304.549,33.794 312.822,33.794 312.822,8.148 
			323.816,8.148 323.816,1.013 		"/>
		<g>
			<path fill="#181716" d="M118.123,0.216c-3.021,0-5.856,0.695-8.343,1.93c0.751,2.94,2.359,5.519,4.577,7.495
				c5.959,5.83,15.978,4.619,20.347,1.307C132.106,4.549,125.688,0.216,118.123,0.216z"/>
			<path fill="#181716" d="M126.491,17.187c0.001,0.048,0.007,0.094,0.007,0.143c0,4.793-3.581,8.59-8.375,8.59
				c-4.729,0-8.379-3.796-8.379-8.59c0-2.056,0.691-3.948,1.861-5.432c-2.253-2.128-3.963-4.786-4.925-7.792
				c-3.907,3.091-6.387,7.787-6.387,13.224c0,9.733,7.947,17.11,17.83,17.11c9.879,0,17.826-7.377,17.826-17.11
				c0-0.983-0.101-1.935-0.257-2.865C133.005,16.044,129.878,17.009,126.491,17.187z"/>
		</g>
	</g>
</g>
</svg>
